<?xml version="1.0" encoding="UTF-8" standalone="no"?>
<!-- Created with Inkscape (http://www.inkscape.org/) -->

<svg
   xmlns:dc="http://purl.org/dc/elements/1.1/"
   xmlns:cc="http://creativecommons.org/ns#"
   xmlns:rdf="http://www.w3.org/1999/02/22-rdf-syntax-ns#"
   xmlns:svg="http://www.w3.org/2000/svg"
   xmlns="http://www.w3.org/2000/svg"
   xmlns:sodipodi="http://sodipodi.sourceforge.net/DTD/sodipodi-0.dtd"
   xmlns:inkscape="http://www.inkscape.org/namespaces/inkscape"
   width="20"
   height="20"
   viewBox="0 0 20 20"
   id="svg2"
   version="1.1"
   inkscape:version="0.91 r"
   sodipodi:docname="check_mark.svg">
  <defs
     id="defs4">
    <clipPath
       clipPathUnits="userSpaceOnUse"
       id="clipPath4150">
      <path
         sodipodi:type="spiral"
         style="fill:none;fill-rule:evenodd;stroke:#000000;stroke-width:1px;stroke-linecap:butt;stroke-linejoin:miter;stroke-opacity:1"
         id="path4152"
         sodipodi:cx="4.9107146"
         sodipodi:cy="1045.6211"
         sodipodi:expansion="1"
         sodipodi:revolution="3"
         sodipodi:radius="4.2950048"
         sodipodi:argument="-18.093561"
         sodipodi:t0="0"
         d="m 4.9107146,1045.6211 c 0.1566826,0.1477 -0.1218344,0.2841 -0.2455357,0.2604 -0.3352228,-0.064 -0.4013093,-0.4892 -0.2752977,-0.7515 0.2254052,-0.4692 0.8444419,-0.5416 1.2574405,-0.2902 0.6060919,0.3691 0.6859327,1.2045 0.3050597,1.7634 -0.5076438,0.745 -1.5661842,0.832 -2.2693452,0.32 -0.8848564,-0.6443 -0.9787961,-1.9287 -0.3348218,-2.7753 0.7799393,-1.0254 2.2916558,-1.1262 3.28125,-0.3497 1.1662025,0.915 1.273857,2.6549 0.3645838,3.7872 -1.0497919,1.3073 -3.0183249,1.4217 -4.2931547,0.3794 -1.4485427,-1.1843 -1.5698049,-3.3818 -0.3943459,-4.7991 1.3186874,-1.5899 3.7455401,-1.7179 5.3050595,-0.4092 1.7313623,1.453 1.8661954,4.1093 0.4241079,5.811" />
    </clipPath>
  </defs>
  <sodipodi:namedview
     id="base"
     pagecolor="#ffffff"
     bordercolor="#666666"
     borderopacity="1.0"
     inkscape:pageopacity="0.0"
     inkscape:pageshadow="2"
     inkscape:zoom="44.8"
     inkscape:cx="8.8174807"
     inkscape:cy="10.240802"
     inkscape:document-units="px"
     inkscape:current-layer="layer1"
     showgrid="false"
     units="px"
     inkscape:window-width="1867"
     inkscape:window-height="1056"
     inkscape:window-x="53"
     inkscape:window-y="24"
     inkscape:window-maximized="1" />
  <metadata
     id="metadata7">
    <rdf:RDF>
      <cc:Work
         rdf:about="">
        <dc:format>image/svg+xml</dc:format>
        <dc:type
           rdf:resource="http://purl.org/dc/dcmitype/StillImage" />
        <dc:title></dc:title>
      </cc:Work>
    </rdf:RDF>
  </metadata>
  <g
     inkscape:label="Layer 1"
     inkscape:groupmode="layer"
     id="layer1"
     transform="translate(0,-1032.3622)">
    <rect
       style="fill:#e3e2db;stroke-width:1.5;stroke-linecap:round;stroke-linejoin:bevel;stroke-miterlimit:4;stroke-dasharray:none"
       id="rect4177"
       width="20"
       height="20"
       x="-0.022321427"
       y="1032.3622" />
    <g
       id="g4160"
       transform="matrix(0.90623397,0,0,0.87418685,0.23944931,129.95012)">
      <rect
         transform="matrix(-0.55494809,-0.83188498,0.55494809,-0.83188498,0,0)"
         y="-621.1925"
         x="-641.50659"
         height="15.564804"
         width="5.5526938"
         id="rect4154"
         style="fill:#000000;stroke-width:1.5;stroke-linecap:round;stroke-linejoin:bevel;stroke-miterlimit:4;stroke-dasharray:none" />
      <rect
         transform="matrix(-0.55781407,0.82996594,-0.55781407,-0.82996594,0,0)"
         y="-642.92059"
         x="621.30463"
         height="12.475759"
         width="6.3064275"
         id="rect4158"
         style="fill:#000000;stroke-width:1.5;stroke-linecap:round;stroke-linejoin:bevel;stroke-miterlimit:4;stroke-dasharray:none" />
    </g>
  </g>
</svg>
